<svg xmlns="http://www.w3.org/2000/svg" width="600" height="600" viewBox="0 0 600 600" version="1.1"><path d="M 225.713 132 C 163.322 132.531, 165.031 132.390, 165.031 137 C 165.031 140.820, 166.723 141.490, 177.819 142.062 C 195.269 142.963, 208.740 151.816, 215.997 167.155 L 218.999 173.500 185.071 174 C 142.050 174.634, 146.164 172.330, 135.083 202 C 114.869 256.126, 112.381 270.116, 111.436 335 L 110.788 379.500 113.383 387.578 C 117.890 401.606, 129.846 416.056, 139.734 419.425 C 146.788 421.828, 485.025 421.832, 487.429 419.429 C 488.788 418.069, 489 413.766, 489 387.516 L 489 357.176 484.750 356.473 C 408.191 343.820, 340.859 287.114, 308.457 208.004 C 296.952 179.912, 287.046 174.025, 251.250 174.008 C 233.764 173.999, 234.229 174.340, 239.558 165.441 C 249.070 149.555, 260.208 142.663, 276.903 142.331 C 287.971 142.111, 288.969 141.669, 288.969 137 C 288.969 131.076, 293.382 131.424, 225.713 132 M 215.947 148.632 C 221.012 154.175, 225 160.622, 225 163.269 C 225 169.479, 227.921 168.283, 231.401 160.648 C 233.365 156.337, 236.821 150.603, 239.079 147.905 L 243.186 143 226.993 143 L 210.799 143 215.947 148.632 M 151.357 196.924 C 148.751 198.513, 147.432 200.860, 143.633 210.670 C 141.113 217.177, 137.216 227.225, 134.974 233 C 129.874 246.137, 129.052 251.608, 131.689 254.864 L 133.598 257.222 211.011 257.208 L 288.425 257.193 290.316 254.858 C 293.549 250.866, 280.429 203.338, 274.441 197.350 L 272.091 195 213.295 195.004 C 157.119 195.007, 154.360 195.093, 151.357 196.924 M 317.992 273.250 C 317.978 281.305, 319.986 327.822, 320.604 333.780 L 321.151 339.059 332.059 344.530 C 338.058 347.538, 343.098 350, 343.258 350 C 343.418 350, 343.520 338.188, 343.484 323.750 C 343.407 292.925, 344.016 295.030, 331.323 281.663 C 326.708 276.802, 322.220 271.739, 321.351 270.413 C 318.928 266.716, 318.001 267.499, 317.992 273.250 M 358.232 333.613 L 358.500 358.500 368 363.176 C 373.225 365.748, 377.837 367.885, 378.250 367.926 C 378.663 367.967, 379 358.365, 379 346.589 L 379 325.177 369.750 317.900 C 364.663 313.898, 359.930 310.197, 359.232 309.675 C 358.215 308.913, 358.017 313.650, 358.232 333.613 M 141.984 325.824 C 135.069 329.444, 132.359 338.789, 135.938 346.672 C 142.334 360.758, 161.438 355.409, 161.424 339.535 C 161.415 328.046, 151.329 320.932, 141.984 325.824 M 258.092 326.164 C 252.488 330.005, 250.714 333.171, 250.714 339.331 C 250.714 355.517, 269.549 361.020, 276.036 346.729 C 282.163 333.233, 269.294 318.485, 258.092 326.164 M 391 352.378 C 391 366.783, 391.298 371.003, 392.380 371.900 C 393.460 372.797, 410.330 379, 411.688 379 C 411.859 379, 412 370.871, 412 360.937 L 412 342.873 402.634 338.437 C 397.483 335.996, 392.758 334, 392.134 334 C 391.330 334, 391 339.342, 391 352.378 M 422.015 363.683 C 422.034 382.528, 423.562 384.586, 437.822 384.965 C 438.875 384.993, 439.079 381.929, 438.822 369.909 C 438.457 352.826, 438.145 352.145, 429.655 349.954 C 427.370 349.364, 424.712 348.652, 423.750 348.373 C 422.135 347.904, 422.001 349.088, 422.015 363.683 M 448.250 370.519 C 448.887 387.536, 449.110 388, 456.650 388 L 462.055 388 461.777 373.753 L 461.500 359.506 458 358.395 C 456.075 357.785, 452.971 356.994, 451.103 356.638 L 447.706 355.991 448.250 370.519 M 471 375.455 C 471 386.418, 471.308 390.003, 472.250 390.011 C 472.938 390.017, 475.188 390.301, 477.250 390.642 L 481 391.262 481 377.753 C 481 362.898, 480.922 362.697, 474.750 361.585 L 471 360.909 471 375.455 M 140 437 L 140 445 125.500 445 L 111 445 111 456.481 C 111 470.814, 97.002 469.172, 216.046 468.802 L 316.500 468.491 324.449 465.177 C 347.667 455.497, 367.606 452.874, 459 447.477 C 492.565 445.495, 489 446.737, 489 437.027 L 489 428.992 368.750 429.246 L 248.500 429.500 248.208 437.250 L 247.916 445 215.958 445 L 184 445 184 437 L 184 429 162 429 L 140 429 140 437" stroke="none" fill="#fbfbfb" fill-rule="evenodd"/><path d="M 276.500 14.587 C 274.850 14.814, 269.225 15.487, 264 16.084 C 81.222 36.951, -34.646 232.602, 33.677 405 C 118.759 619.689, 410.224 650.201, 538.628 457.861 C 654.956 283.610, 548.783 48.139, 339.561 16.370 C 330.011 14.920, 283.624 13.608, 276.500 14.587 M 225.713 132 C 163.322 132.531, 165.031 132.390, 165.031 137 C 165.031 140.820, 166.723 141.490, 177.819 142.062 C 195.269 142.963, 208.740 151.816, 215.997 167.155 L 218.999 173.500 185.071 174 C 142.050 174.634, 146.164 172.330, 135.083 202 C 114.869 256.126, 112.381 270.116, 111.436 335 L 110.788 379.500 113.383 387.578 C 117.890 401.606, 129.846 416.056, 139.734 419.425 C 146.788 421.828, 485.025 421.832, 487.429 419.429 C 488.788 418.069, 489 413.766, 489 387.516 L 489 357.176 484.750 356.473 C 408.191 343.820, 340.859 287.114, 308.457 208.004 C 296.952 179.912, 287.046 174.025, 251.250 174.008 C 233.764 173.999, 234.229 174.340, 239.558 165.441 C 249.070 149.555, 260.208 142.663, 276.903 142.331 C 287.971 142.111, 288.969 141.669, 288.969 137 C 288.969 131.076, 293.382 131.424, 225.713 132 M 215.947 148.632 C 221.012 154.175, 225 160.622, 225 163.269 C 225 169.479, 227.921 168.283, 231.401 160.648 C 233.365 156.337, 236.821 150.603, 239.079 147.905 L 243.186 143 226.993 143 L 210.799 143 215.947 148.632 M 151.357 196.924 C 148.751 198.513, 147.432 200.860, 143.633 210.670 C 141.113 217.177, 137.216 227.225, 134.974 233 C 129.874 246.137, 129.052 251.608, 131.689 254.864 L 133.598 257.222 211.011 257.208 L 288.425 257.193 290.316 254.858 C 293.549 250.866, 280.429 203.338, 274.441 197.350 L 272.091 195 213.295 195.004 C 157.119 195.007, 154.360 195.093, 151.357 196.924 M 317.992 273.250 C 317.978 281.305, 319.986 327.822, 320.604 333.780 L 321.151 339.059 332.059 344.530 C 338.058 347.538, 343.098 350, 343.258 350 C 343.418 350, 343.520 338.188, 343.484 323.750 C 343.407 292.925, 344.016 295.030, 331.323 281.663 C 326.708 276.802, 322.220 271.739, 321.351 270.413 C 318.928 266.716, 318.001 267.499, 317.992 273.250 M 358.232 333.613 L 358.500 358.500 368 363.176 C 373.225 365.748, 377.837 367.885, 378.250 367.926 C 378.663 367.967, 379 358.365, 379 346.589 L 379 325.177 369.750 317.900 C 364.663 313.898, 359.930 310.197, 359.232 309.675 C 358.215 308.913, 358.017 313.650, 358.232 333.613 M 141.984 325.824 C 135.069 329.444, 132.359 338.789, 135.938 346.672 C 142.334 360.758, 161.438 355.409, 161.424 339.535 C 161.415 328.046, 151.329 320.932, 141.984 325.824 M 258.092 326.164 C 252.488 330.005, 250.714 333.171, 250.714 339.331 C 250.714 355.517, 269.549 361.020, 276.036 346.729 C 282.163 333.233, 269.294 318.485, 258.092 326.164 M 391 352.378 C 391 366.783, 391.298 371.003, 392.380 371.900 C 393.460 372.797, 410.330 379, 411.688 379 C 411.859 379, 412 370.871, 412 360.937 L 412 342.873 402.634 338.437 C 397.483 335.996, 392.758 334, 392.134 334 C 391.330 334, 391 339.342, 391 352.378 M 422.015 363.683 C 422.034 382.528, 423.562 384.586, 437.822 384.965 C 438.875 384.993, 439.079 381.929, 438.822 369.909 C 438.457 352.826, 438.145 352.145, 429.655 349.954 C 427.370 349.364, 424.712 348.652, 423.750 348.373 C 422.135 347.904, 422.001 349.088, 422.015 363.683 M 448.250 370.519 C 448.887 387.536, 449.110 388, 456.650 388 L 462.055 388 461.777 373.753 L 461.500 359.506 458 358.395 C 456.075 357.785, 452.971 356.994, 451.103 356.638 L 447.706 355.991 448.250 370.519 M 471 375.455 C 471 386.418, 471.308 390.003, 472.250 390.011 C 472.938 390.017, 475.188 390.301, 477.250 390.642 L 481 391.262 481 377.753 C 481 362.898, 480.922 362.697, 474.750 361.585 L 471 360.909 471 375.455 M 140 437 L 140 445 125.500 445 L 111 445 111 456.481 C 111 470.814, 97.002 469.172, 216.046 468.802 L 316.500 468.491 324.449 465.177 C 347.667 455.497, 367.606 452.874, 459 447.477 C 492.565 445.495, 489 446.737, 489 437.027 L 489 428.992 368.750 429.246 L 248.500 429.500 248.208 437.250 L 247.916 445 215.958 445 L 184 445 184 437 L 184 429 162 429 L 140 429 140 437" stroke="none" fill="#0c2c84" fill-rule="evenodd"/></svg>